# xmcd
#
# Track frame offsets:
#	150
#	10908
#	23935
#	43060
#	56863
#	72133
#	87623
#	101010
#	112853
#	128198
#	143525
#	155385
#	170028
#	183423
#
# Disc length: 2680 seconds
#
# Revision: 2
# Processed by: cddbd v1.5.1PL0 Copyright (c) Steve Scherf et al.
# Submitted via: audiograbber 1.83.01
#
DISCID=be0a760e
DTITLE=Various Artist - Mr Music Country 1997-04
DYEAR=1997
DGENRE=Country
TTITLE0=Dale Watson - Heaven's Gonna Have A Honky Tonk
TTITLE1=Calvin Wiggett - Rock And Roll Heart
TTITLE2=Amber Dawn Fleury - I'll Wait For You
TTITLE3=Buz Gardner - No Limit To Your Love
TTITLE4=Frank Jansen - Drivin' Your Memory Away
TTITLE5=Double O - Every Face Tells A Story
TTITLE6=Cary Cooley - Texas Looks Like Tennessee
TTITLE7=Jody Adams - Blue Collar Baby
TTITLE8=Rayburn Anthony - Love Will Unlock Any Door
TTITLE9=Janell Rae - She's Nobody's Girl
TTITLE10=Michael Rose - Rockin' The Ranch
TTITLE11=Sharon Anderson - Tennessee Moon
TTITLE12=Darrell McCall - Country Girl
TTITLE13=Mona McCall - While I Dream Of San Antone
EXTD=
EXTT0=
EXTT1=
EXTT2=
EXTT3=
EXTT4=
EXTT5=
EXTT6=
EXTT7=
EXTT8=
EXTT9=
EXTT10=
EXTT11=
EXTT12=
EXTT13=
PLAYORDER=
